<?xml version="1.0" encoding="UTF-8" standalone="no"?>
<!DOCTYPE svg PUBLIC "-//W3C//DTD SVG 1.1//EN"
 "http://www.w3.org/Graphics/SVG/1.1/DTD/svg11.dtd">
<!-- Generated by graphviz version 2.40.1 (20161225.0304)
 -->
<!-- Title: G Pages: 1 -->
<svg width="761pt" height="1122pt"
 viewBox="0.00 0.00 761.00 1122.00" xmlns="http://www.w3.org/2000/svg" xmlns:xlink="http://www.w3.org/1999/xlink">
<g id="graph0" class="graph" transform="scale(1 1) rotate(0) translate(4 1118)">
<title>G</title>
<polygon fill="#ffffff" stroke="transparent" points="-4,4 -4,-1118 757,-1118 757,4 -4,4"/>
<g id="clust1" class="cluster">
<title>cluster_Global</title>
<path fill="none" stroke="#c0c0c0" d="M20,-8C20,-8 733,-8 733,-8 739,-8 745,-14 745,-20 745,-20 745,-1094 745,-1094 745,-1100 739,-1106 733,-1106 733,-1106 20,-1106 20,-1106 14,-1106 8,-1100 8,-1094 8,-1094 8,-20 8,-20 8,-14 14,-8 20,-8"/>
<text text-anchor="middle" x="376.5" y="-1093.2" font-family="Times,serif" font-size="11.00" fill="#c0c0c0">Global</text>
</g>
<!-- \\PhpSecInfo_Test_Core -->
<g id="node1" class="node">
<title>\\PhpSecInfo_Test_Core</title>
<polygon fill="none" stroke="#000000" points="368,-619 216,-619 216,-583 368,-583 368,-619"/>
<text text-anchor="middle" x="292" y="-598.2" font-family="Courier,monospace" font-size="11.00" fill="#000000">PhpSecInfo_Test_Core</text>
</g>
<!-- \\PhpSecInfo_Test -->
<g id="node25" class="node">
<title>\\PhpSecInfo_Test</title>
<polygon fill="none" stroke="#000000" points="134,-484 16,-484 16,-448 134,-448 134,-484"/>
<text text-anchor="middle" x="75" y="-463.2" font-family="Courier,monospace" font-size="11.00" fill="#000000">PhpSecInfo_Test</text>
</g>
<!-- \\PhpSecInfo_Test_Core&#45;&gt;\\PhpSecInfo_Test -->
<g id="edge1" class="edge">
<title>\\PhpSecInfo_Test_Core&#45;&gt;\\PhpSecInfo_Test</title>
<path fill="none" stroke="#000000" d="M262.7344,-582.7933C223.9608,-558.6714 155.5035,-516.0828 112.8401,-489.5411"/>
<polygon fill="none" stroke="#000000" points="114.4875,-486.4439 104.1476,-484.1333 110.7898,-492.3876 114.4875,-486.4439"/>
</g>
<!-- \\PhpSecInfo_Test_Session -->
<g id="node2" class="node">
<title>\\PhpSecInfo_Test_Session</title>
<polygon fill="none" stroke="#000000" points="378,-160 206,-160 206,-124 378,-124 378,-160"/>
<text text-anchor="middle" x="292" y="-139.2" font-family="Courier,monospace" font-size="11.00" fill="#000000">PhpSecInfo_Test_Session</text>
</g>
<!-- \\PhpSecInfo_Test_Session&#45;&gt;\\PhpSecInfo_Test -->
<g id="edge2" class="edge">
<title>\\PhpSecInfo_Test_Session&#45;&gt;\\PhpSecInfo_Test</title>
<path fill="none" stroke="#000000" d="M276.3446,-160.1782C258.5144,-181.2097 228.8917,-217.1648 206,-250 160.2749,-315.5867 113.2423,-397.297 89.9516,-438.9085"/>
<polygon fill="none" stroke="#000000" points="86.7647,-437.4371 84.9529,-447.8759 92.879,-440.8454 86.7647,-437.4371"/>
</g>
<!-- \\PhpSecInfo_Test_Cgi -->
<g id="node3" class="node">
<title>\\PhpSecInfo_Test_Cgi</title>
<polygon fill="none" stroke="#000000" points="364.5,-889 219.5,-889 219.5,-853 364.5,-853 364.5,-889"/>
<text text-anchor="middle" x="292" y="-868.2" font-family="Courier,monospace" font-size="11.00" fill="#000000">PhpSecInfo_Test_Cgi</text>
</g>
<!-- \\PhpSecInfo_Test_Cgi&#45;&gt;\\PhpSecInfo_Test -->
<g id="edge3" class="edge">
<title>\\PhpSecInfo_Test_Cgi&#45;&gt;\\PhpSecInfo_Test</title>
<path fill="none" stroke="#000000" d="M282.2544,-852.8112C247.6933,-788.3078 130.8581,-570.2512 89.5872,-493.2249"/>
<polygon fill="none" stroke="#000000" points="92.5267,-491.3002 84.7187,-484.1387 86.3565,-494.6062 92.5267,-491.3002"/>
</g>
<!-- \\PhpSecInfo_Test_Cgi_Force_Redirect -->
<g id="node4" class="node">
<title>\\PhpSecInfo_Test_Cgi_Force_Redirect</title>
<polygon fill="none" stroke="#000000" points="716.5,-1078 470.5,-1078 470.5,-1042 716.5,-1042 716.5,-1078"/>
<text text-anchor="middle" x="593.5" y="-1057.2" font-family="Courier,monospace" font-size="11.00" fill="#000000">PhpSecInfo_Test_Cgi_Force_Redirect</text>
</g>
<!-- \\PhpSecInfo_Test_Cgi_Force_Redirect&#45;&gt;\\PhpSecInfo_Test_Cgi -->
<g id="edge4" class="edge">
<title>\\PhpSecInfo_Test_Cgi_Force_Redirect&#45;&gt;\\PhpSecInfo_Test_Cgi</title>
<path fill="none" stroke="#000000" d="M470.392,-1042.1517C463.3331,-1039.5046 456.4798,-1036.4724 450,-1033 388.1279,-999.844 335.6557,-934.0543 309.6022,-897.336"/>
<polygon fill="none" stroke="#000000" points="312.4466,-895.296 303.8543,-889.0974 306.7057,-899.3013 312.4466,-895.296"/>
</g>
<!-- \\PhpSecInfo_Test_Core_Register_Globals -->
<g id="node5" class="node">
<title>\\PhpSecInfo_Test_Core_Register_Globals</title>
<polygon fill="none" stroke="#000000" points="726.5,-1024 460.5,-1024 460.5,-988 726.5,-988 726.5,-1024"/>
<text text-anchor="middle" x="593.5" y="-1003.2" font-family="Courier,monospace" font-size="11.00" fill="#000000">PhpSecInfo_Test_Core_Register_Globals</text>
</g>
<!-- \\PhpSecInfo_Test_Core_Register_Globals&#45;&gt;\\PhpSecInfo_Test_Core -->
<g id="edge5" class="edge">
<title>\\PhpSecInfo_Test_Core_Register_Globals&#45;&gt;\\PhpSecInfo_Test_Core</title>
<path fill="none" stroke="#000000" d="M463.1994,-987.982C458.5628,-985.3306 454.138,-982.3492 450,-979 420.7431,-955.3203 331.8485,-712.3733 301.94,-628.9466"/>
<polygon fill="none" stroke="#000000" points="305.1773,-627.6049 298.5141,-619.3677 298.5862,-629.9623 305.1773,-627.6049"/>
</g>
<!-- \\PhpSecInfo_Test_Core_Uid -->
<g id="node6" class="node">
<title>\\PhpSecInfo_Test_Core_Uid</title>
<polygon fill="none" stroke="#000000" points="683,-970 504,-970 504,-934 683,-934 683,-970"/>
<text text-anchor="middle" x="593.5" y="-949.2" font-family="Courier,monospace" font-size="11.00" fill="#000000">PhpSecInfo_Test_Core_Uid</text>
</g>
<!-- \\PhpSecInfo_Test_Core_Uid&#45;&gt;\\PhpSecInfo_Test_Core -->
<g id="edge6" class="edge">
<title>\\PhpSecInfo_Test_Core_Uid&#45;&gt;\\PhpSecInfo_Test_Core</title>
<path fill="none" stroke="#000000" d="M503.9028,-948.2199C484.6879,-943.9957 465.5213,-936.8368 450,-925 350.2727,-848.9464 309.8581,-693.4098 297.0081,-629.4429"/>
<polygon fill="none" stroke="#000000" points="300.3809,-628.4488 295.0486,-619.2937 293.5078,-629.7759 300.3809,-628.4488"/>
</g>
<!-- \\PhpSecInfo_Test_Core_Upload_Max_Filesize -->
<g id="node7" class="node">
<title>\\PhpSecInfo_Test_Core_Upload_Max_Filesize</title>
<polygon fill="none" stroke="#000000" points="737,-916 450,-916 450,-880 737,-880 737,-916"/>
<text text-anchor="middle" x="593.5" y="-895.2" font-family="Courier,monospace" font-size="11.00" fill="#000000">PhpSecInfo_Test_Core_Upload_Max_Filesize</text>
</g>
<!-- \\PhpSecInfo_Test_Core_Upload_Max_Filesize&#45;&gt;\\PhpSecInfo_Test_Core -->
<g id="edge7" class="edge">
<title>\\PhpSecInfo_Test_Core_Upload_Max_Filesize&#45;&gt;\\PhpSecInfo_Test_Core</title>
<path fill="none" stroke="#000000" d="M465.113,-879.9589C459.8353,-877.3299 454.7668,-874.3576 450,-871 363.236,-809.8851 316.8705,-684.7573 299.7825,-628.9471"/>
<polygon fill="none" stroke="#000000" points="303.0462,-627.643 296.8404,-619.0559 296.3367,-629.6387 303.0462,-627.643"/>
</g>
<!-- \\PhpSecInfo_Test_Core_Allow_Url_Include -->
<g id="node8" class="node">
<title>\\PhpSecInfo_Test_Core_Allow_Url_Include</title>
<polygon fill="none" stroke="#000000" points="730,-862 457,-862 457,-826 730,-826 730,-862"/>
<text text-anchor="middle" x="593.5" y="-841.2" font-family="Courier,monospace" font-size="11.00" fill="#000000">PhpSecInfo_Test_Core_Allow_Url_Include</text>
</g>
<!-- \\PhpSecInfo_Test_Core_Allow_Url_Include&#45;&gt;\\PhpSecInfo_Test_Core -->
<g id="edge8" class="edge">
<title>\\PhpSecInfo_Test_Core_Allow_Url_Include&#45;&gt;\\PhpSecInfo_Test_Core</title>
<path fill="none" stroke="#000000" d="M466.9328,-825.9796C461.043,-823.3582 455.3607,-820.3805 450,-817 375.8854,-770.2634 325.2235,-675.1676 303.6808,-628.3243"/>
<polygon fill="none" stroke="#000000" points="306.8233,-626.7785 299.5278,-619.0956 300.4398,-629.6511 306.8233,-626.7785"/>
</g>
<!-- \\PhpSecInfo_Test_Core_Upload_Tmp_Dir -->
<g id="node9" class="node">
<title>\\PhpSecInfo_Test_Core_Upload_Tmp_Dir</title>
<polygon fill="none" stroke="#000000" points="720,-808 467,-808 467,-772 720,-772 720,-808"/>
<text text-anchor="middle" x="593.5" y="-787.2" font-family="Courier,monospace" font-size="11.00" fill="#000000">PhpSecInfo_Test_Core_Upload_Tmp_Dir</text>
</g>
<!-- \\PhpSecInfo_Test_Core_Upload_Tmp_Dir&#45;&gt;\\PhpSecInfo_Test_Core -->
<g id="edge9" class="edge">
<title>\\PhpSecInfo_Test_Core_Upload_Tmp_Dir&#45;&gt;\\PhpSecInfo_Test_Core</title>
<path fill="none" stroke="#000000" d="M469.6625,-771.8765C462.8609,-769.295 456.2564,-766.3527 450,-763 388.1279,-729.844 335.6557,-664.0543 309.6022,-627.336"/>
<polygon fill="none" stroke="#000000" points="312.4466,-625.296 303.8543,-619.0974 306.7057,-629.3013 312.4466,-625.296"/>
</g>
<!-- \\PhpSecInfo_Test_Core_Allow_Url_Fopen -->
<g id="node10" class="node">
<title>\\PhpSecInfo_Test_Core_Allow_Url_Fopen</title>
<polygon fill="none" stroke="#000000" points="723.5,-754 463.5,-754 463.5,-718 723.5,-718 723.5,-754"/>
<text text-anchor="middle" x="593.5" y="-733.2" font-family="Courier,monospace" font-size="11.00" fill="#000000">PhpSecInfo_Test_Core_Allow_Url_Fopen</text>
</g>
<!-- \\PhpSecInfo_Test_Core_Allow_Url_Fopen&#45;&gt;\\PhpSecInfo_Test_Core -->
<g id="edge10" class="edge">
<title>\\PhpSecInfo_Test_Core_Allow_Url_Fopen&#45;&gt;\\PhpSecInfo_Test_Core</title>
<path fill="none" stroke="#000000" d="M475.6399,-717.969C466.8348,-715.3683 458.1969,-712.3961 450,-709 400.337,-688.4238 350.3402,-650.7192 320.2674,-625.7545"/>
<polygon fill="none" stroke="#000000" points="322.2355,-622.8363 312.3305,-619.0758 317.7285,-628.1924 322.2355,-622.8363"/>
</g>
<!-- \\PhpSecInfo_Test_Core_File_Uploads -->
<g id="node11" class="node">
<title>\\PhpSecInfo_Test_Core_File_Uploads</title>
<polygon fill="none" stroke="#000000" points="713,-700 474,-700 474,-664 713,-664 713,-700"/>
<text text-anchor="middle" x="593.5" y="-679.2" font-family="Courier,monospace" font-size="11.00" fill="#000000">PhpSecInfo_Test_Core_File_Uploads</text>
</g>
<!-- \\PhpSecInfo_Test_Core_File_Uploads&#45;&gt;\\PhpSecInfo_Test_Core -->
<g id="edge11" class="edge">
<title>\\PhpSecInfo_Test_Core_File_Uploads&#45;&gt;\\PhpSecInfo_Test_Core</title>
<path fill="none" stroke="#000000" d="M488.0935,-663.9616C475.1998,-661.2279 462.2568,-658.2298 450,-655 415.853,-646.0019 378.4277,-633.3401 348.5758,-622.5387"/>
<polygon fill="none" stroke="#000000" points="349.7574,-619.2442 339.1635,-619.1041 347.3578,-625.82 349.7574,-619.2442"/>
</g>
<!-- \\PhpSecInfo_Test_Core_Open_Basedir -->
<g id="node12" class="node">
<title>\\PhpSecInfo_Test_Core_Open_Basedir</title>
<polygon fill="none" stroke="#000000" points="713,-646 474,-646 474,-610 713,-610 713,-646"/>
<text text-anchor="middle" x="593.5" y="-625.2" font-family="Courier,monospace" font-size="11.00" fill="#000000">PhpSecInfo_Test_Core_Open_Basedir</text>
</g>
<!-- \\PhpSecInfo_Test_Core_Open_Basedir&#45;&gt;\\PhpSecInfo_Test_Core -->
<g id="edge12" class="edge">
<title>\\PhpSecInfo_Test_Core_Open_Basedir&#45;&gt;\\PhpSecInfo_Test_Core</title>
<path fill="none" stroke="#000000" d="M473.9062,-617.2901C441.9924,-614.4322 408.1306,-611.3998 378.3851,-608.736"/>
<polygon fill="none" stroke="#000000" points="378.3178,-605.216 368.0454,-607.81 377.6934,-612.1881 378.3178,-605.216"/>
</g>
<!-- \\PhpSecInfo_Test_Core_Post_Max_Size -->
<g id="node13" class="node">
<title>\\PhpSecInfo_Test_Core_Post_Max_Size</title>
<polygon fill="none" stroke="#000000" points="716.5,-592 470.5,-592 470.5,-556 716.5,-556 716.5,-592"/>
<text text-anchor="middle" x="593.5" y="-571.2" font-family="Courier,monospace" font-size="11.00" fill="#000000">PhpSecInfo_Test_Core_Post_Max_Size</text>
</g>
<!-- \\PhpSecInfo_Test_Core_Post_Max_Size&#45;&gt;\\PhpSecInfo_Test_Core -->
<g id="edge13" class="edge">
<title>\\PhpSecInfo_Test_Core_Post_Max_Size&#45;&gt;\\PhpSecInfo_Test_Core</title>
<path fill="none" stroke="#000000" d="M470.4336,-585.0209C439.5547,-587.7861 407.0711,-590.6951 378.4078,-593.262"/>
<polygon fill="none" stroke="#000000" points="378.0853,-589.7768 368.4374,-594.1549 378.7098,-596.7489 378.0853,-589.7768"/>
</g>
<!-- \\PhpSecInfo_Test_Core_Expose_Php -->
<g id="node14" class="node">
<title>\\PhpSecInfo_Test_Core_Expose_Php</title>
<polygon fill="none" stroke="#000000" points="706.5,-538 480.5,-538 480.5,-502 706.5,-502 706.5,-538"/>
<text text-anchor="middle" x="593.5" y="-517.2" font-family="Courier,monospace" font-size="11.00" fill="#000000">PhpSecInfo_Test_Core_Expose_Php</text>
</g>
<!-- \\PhpSecInfo_Test_Core_Expose_Php&#45;&gt;\\PhpSecInfo_Test_Core -->
<g id="edge14" class="edge">
<title>\\PhpSecInfo_Test_Core_Expose_Php&#45;&gt;\\PhpSecInfo_Test_Core</title>
<path fill="none" stroke="#000000" d="M488.0935,-538.0384C475.1998,-540.7721 462.2568,-543.7702 450,-547 415.853,-555.9981 378.4277,-568.6599 348.5758,-579.4613"/>
<polygon fill="none" stroke="#000000" points="347.3578,-576.18 339.1635,-582.8959 349.7574,-582.7558 347.3578,-576.18"/>
</g>
<!-- \\PhpSecInfo_Test_Core_Version -->
<g id="node15" class="node">
<title>\\PhpSecInfo_Test_Core_Version</title>
<polygon fill="none" stroke="#000000" points="696.5,-484 490.5,-484 490.5,-448 696.5,-448 696.5,-484"/>
<text text-anchor="middle" x="593.5" y="-463.2" font-family="Courier,monospace" font-size="11.00" fill="#000000">PhpSecInfo_Test_Core_Version</text>
</g>
<!-- \\PhpSecInfo_Test_Core_Version&#45;&gt;\\PhpSecInfo_Test_Core -->
<g id="edge15" class="edge">
<title>\\PhpSecInfo_Test_Core_Version&#45;&gt;\\PhpSecInfo_Test_Core</title>
<path fill="none" stroke="#000000" d="M490.4652,-480.021C476.5968,-483.4514 462.7638,-487.7117 450,-493 400.337,-513.5762 350.3402,-551.2808 320.2674,-576.2455"/>
<polygon fill="none" stroke="#000000" points="317.7285,-573.8076 312.3305,-582.9242 322.2355,-579.1637 317.7285,-573.8076"/>
</g>
<!-- \\PhpSecInfo_Test_Core_Memory_Limit -->
<g id="node16" class="node">
<title>\\PhpSecInfo_Test_Core_Memory_Limit</title>
<polygon fill="none" stroke="#000000" points="713,-430 474,-430 474,-394 713,-394 713,-430"/>
<text text-anchor="middle" x="593.5" y="-409.2" font-family="Courier,monospace" font-size="11.00" fill="#000000">PhpSecInfo_Test_Core_Memory_Limit</text>
</g>
<!-- \\PhpSecInfo_Test_Core_Memory_Limit&#45;&gt;\\PhpSecInfo_Test_Core -->
<g id="edge16" class="edge">
<title>\\PhpSecInfo_Test_Core_Memory_Limit&#45;&gt;\\PhpSecInfo_Test_Core</title>
<path fill="none" stroke="#000000" d="M473.6922,-428.6436C465.4689,-431.565 457.4853,-434.9888 450,-439 388.1279,-472.156 335.6557,-537.9457 309.6022,-574.664"/>
<polygon fill="none" stroke="#000000" points="306.7057,-572.6987 303.8543,-582.9026 312.4466,-576.704 306.7057,-572.6987"/>
</g>
<!-- \\PhpSecInfo_Test_Core_Display_Errors -->
<g id="node17" class="node">
<title>\\PhpSecInfo_Test_Core_Display_Errors</title>
<polygon fill="none" stroke="#000000" points="720,-376 467,-376 467,-340 720,-340 720,-376"/>
<text text-anchor="middle" x="593.5" y="-355.2" font-family="Courier,monospace" font-size="11.00" fill="#000000">PhpSecInfo_Test_Core_Display_Errors</text>
</g>
<!-- \\PhpSecInfo_Test_Core_Display_Errors&#45;&gt;\\PhpSecInfo_Test_Core -->
<g id="edge17" class="edge">
<title>\\PhpSecInfo_Test_Core_Display_Errors&#45;&gt;\\PhpSecInfo_Test_Core</title>
<path fill="none" stroke="#000000" d="M466.7499,-375.7373C460.9079,-378.4327 455.2859,-381.5036 450,-385 401.8846,-416.8262 411.9983,-446.394 378,-493 357.0827,-521.6742 331.5889,-553.3122 313.812,-574.8908"/>
<polygon fill="none" stroke="#000000" points="311.0782,-572.7046 307.4023,-582.6414 316.4725,-577.1657 311.0782,-572.7046"/>
</g>
<!-- \\PhpSecInfo_Test_Core_Magic_Quotes_GPC -->
<g id="node18" class="node">
<title>\\PhpSecInfo_Test_Core_Magic_Quotes_GPC</title>
<polygon fill="none" stroke="#000000" points="726.5,-322 460.5,-322 460.5,-286 726.5,-286 726.5,-322"/>
<text text-anchor="middle" x="593.5" y="-301.2" font-family="Courier,monospace" font-size="11.00" fill="#000000">PhpSecInfo_Test_Core_Magic_Quotes_GPC</text>
</g>
<!-- \\PhpSecInfo_Test_Core_Magic_Quotes_GPC&#45;&gt;\\PhpSecInfo_Test_Core -->
<g id="edge18" class="edge">
<title>\\PhpSecInfo_Test_Core_Magic_Quotes_GPC&#45;&gt;\\PhpSecInfo_Test_Core</title>
<path fill="none" stroke="#000000" d="M463.2932,-322.1352C458.6309,-324.7545 454.1751,-327.6972 450,-331 388.2066,-379.8833 418.8703,-425.6381 378,-493 359.6994,-523.1628 334.0119,-554.3447 315.4824,-575.4018"/>
<polygon fill="none" stroke="#000000" points="312.7954,-573.1563 308.7616,-582.9532 318.0244,-577.8102 312.7954,-573.1563"/>
</g>
<!-- \\PhpSecInfo_Test_Core_Gid -->
<g id="node19" class="node">
<title>\\PhpSecInfo_Test_Core_Gid</title>
<polygon fill="none" stroke="#000000" points="683,-268 504,-268 504,-232 683,-232 683,-268"/>
<text text-anchor="middle" x="593.5" y="-247.2" font-family="Courier,monospace" font-size="11.00" fill="#000000">PhpSecInfo_Test_Core_Gid</text>
</g>
<!-- \\PhpSecInfo_Test_Core_Gid&#45;&gt;\\PhpSecInfo_Test_Core -->
<g id="edge19" class="edge">
<title>\\PhpSecInfo_Test_Core_Gid&#45;&gt;\\PhpSecInfo_Test_Core</title>
<path fill="none" stroke="#000000" d="M503.8285,-252.0696C484.2849,-256.3167 464.9935,-263.9155 450,-277 373.7569,-343.5356 426.258,-404.0553 378,-493 361.2765,-523.8233 335.5781,-554.6908 316.6259,-575.4841"/>
<polygon fill="none" stroke="#000000" points="313.9499,-573.2227 309.7254,-582.9389 319.0869,-577.9778 313.9499,-573.2227"/>
</g>
<!-- \\PhpSecInfo_Test_Dir -->
<g id="node20" class="node">
<title>\\PhpSecInfo_Test_Dir</title>
<polygon fill="none" stroke="#000000" points="364.5,-484 219.5,-484 219.5,-448 364.5,-448 364.5,-484"/>
<text text-anchor="middle" x="292" y="-463.2" font-family="Courier,monospace" font-size="11.00" fill="#000000">PhpSecInfo_Test_Dir</text>
</g>
<!-- \\PhpSecInfo_Test_Dir&#45;&gt;\\PhpSecInfo_Test -->
<g id="edge20" class="edge">
<title>\\PhpSecInfo_Test_Dir&#45;&gt;\\PhpSecInfo_Test</title>
<path fill="none" stroke="#000000" d="M219.4404,-466C195.1835,-466 168.2247,-466 144.2284,-466"/>
<polygon fill="none" stroke="#000000" points="144.1422,-462.5001 134.1422,-466 144.1422,-469.5001 144.1422,-462.5001"/>
</g>
<!-- \\PhpSecInfo_Test_Curl -->
<g id="node21" class="node">
<title>\\PhpSecInfo_Test_Curl</title>
<polygon fill="none" stroke="#000000" points="368,-295 216,-295 216,-259 368,-259 368,-295"/>
<text text-anchor="middle" x="292" y="-274.2" font-family="Courier,monospace" font-size="11.00" fill="#000000">PhpSecInfo_Test_Curl</text>
</g>
<!-- \\PhpSecInfo_Test_Curl&#45;&gt;\\PhpSecInfo_Test -->
<g id="edge21" class="edge">
<title>\\PhpSecInfo_Test_Curl&#45;&gt;\\PhpSecInfo_Test</title>
<path fill="none" stroke="#000000" d="M271.1931,-295.1221C232.1459,-329.131 147.8396,-402.5591 103.5317,-441.1498"/>
<polygon fill="none" stroke="#000000" points="100.986,-438.7256 95.7439,-447.9328 105.5835,-444.0042 100.986,-438.7256"/>
</g>
<!-- \\PhpSecInfo_Test_Curl_File_Support -->
<g id="node22" class="node">
<title>\\PhpSecInfo_Test_Curl_File_Support</title>
<polygon fill="none" stroke="#000000" points="713,-214 474,-214 474,-178 713,-178 713,-214"/>
<text text-anchor="middle" x="593.5" y="-193.2" font-family="Courier,monospace" font-size="11.00" fill="#000000">PhpSecInfo_Test_Curl_File_Support</text>
</g>
<!-- \\PhpSecInfo_Test_Curl_File_Support&#45;&gt;\\PhpSecInfo_Test_Curl -->
<g id="edge22" class="edge">
<title>\\PhpSecInfo_Test_Curl_File_Support&#45;&gt;\\PhpSecInfo_Test_Curl</title>
<path fill="none" stroke="#000000" d="M488.0935,-214.0384C475.1998,-216.7721 462.2568,-219.7702 450,-223 415.853,-231.9981 378.4277,-244.6599 348.5758,-255.4613"/>
<polygon fill="none" stroke="#000000" points="347.3578,-252.18 339.1635,-258.8959 349.7574,-258.7558 347.3578,-252.18"/>
</g>
<!-- \\PhpSecInfo_Test_Session_Save_Path -->
<g id="node23" class="node">
<title>\\PhpSecInfo_Test_Session_Save_Path</title>
<polygon fill="none" stroke="#000000" points="713,-160 474,-160 474,-124 713,-124 713,-160"/>
<text text-anchor="middle" x="593.5" y="-139.2" font-family="Courier,monospace" font-size="11.00" fill="#000000">PhpSecInfo_Test_Session_Save_Path</text>
</g>
<!-- \\PhpSecInfo_Test_Session_Save_Path&#45;&gt;\\PhpSecInfo_Test_Session -->
<g id="edge23" class="edge">
<title>\\PhpSecInfo_Test_Session_Save_Path&#45;&gt;\\PhpSecInfo_Test_Session</title>
<path fill="none" stroke="#000000" d="M473.9062,-142C445.6241,-142 415.8122,-142 388.6911,-142"/>
<polygon fill="none" stroke="#000000" points="388.4373,-138.5001 378.4372,-142 388.4372,-145.5001 388.4373,-138.5001"/>
</g>
<!-- \\PhpSecInfo_Test_Session_Use_Trans_Sid -->
<g id="node24" class="node">
<title>\\PhpSecInfo_Test_Session_Use_Trans_Sid</title>
<polygon fill="none" stroke="#000000" points="726.5,-106 460.5,-106 460.5,-70 726.5,-70 726.5,-106"/>
<text text-anchor="middle" x="593.5" y="-85.2" font-family="Courier,monospace" font-size="11.00" fill="#000000">PhpSecInfo_Test_Session_Use_Trans_Sid</text>
</g>
<!-- \\PhpSecInfo_Test_Session_Use_Trans_Sid&#45;&gt;\\PhpSecInfo_Test_Session -->
<g id="edge24" class="edge">
<title>\\PhpSecInfo_Test_Session_Use_Trans_Sid&#45;&gt;\\PhpSecInfo_Test_Session</title>
<path fill="none" stroke="#000000" d="M492.6857,-106.0563C459.0205,-112.0859 421.6097,-118.7863 388.2972,-124.7527"/>
<polygon fill="none" stroke="#000000" points="387.3254,-121.371 378.0991,-126.5793 388.5595,-128.2614 387.3254,-121.371"/>
</g>
<!-- \\PhpSecInfo -->
<g id="node26" class="node">
<title>\\PhpSecInfo</title>
<polygon fill="none" stroke="#000000" points="635.5,-52 551.5,-52 551.5,-16 635.5,-16 635.5,-52"/>
<text text-anchor="middle" x="593.5" y="-31.2" font-family="Courier,monospace" font-size="11.00" fill="#000000">PhpSecInfo</text>
</g>
</g>
</svg>
